<svg id="Livello_1" data-name="Livello 1" xmlns="http://www.w3.org/2000/svg" xmlns:xlink="http://www.w3.org/1999/xlink" viewBox="0 0 372.96 113"><defs><style>.cls-1{fill:none;}.cls-2{clip-path:url(#clip-path);}.cls-3{fill:#4478a7;}.cls-4{clip-path:url(#clip-path-2);}.cls-5{fill:#7fa6c0;}.cls-6{fill:#fff;}.cls-7{fill:#142a50;}</style><clipPath id="clip-path" transform="translate(-54.57 -187.57)"><rect class="cls-1" x="54.57" y="187.57" width="113" height="113"/></clipPath><clipPath id="clip-path-2" transform="translate(-54.57 -187.57)"><rect class="cls-1" x="54.57" y="187.57" width="97.87" height="103.14"/></clipPath></defs><g class="cls-2"><path class="cls-3" d="M167.57,244.07a56.5,56.5,0,1,1-15.44-38.81A56.49,56.49,0,0,1,167.57,244.07Z" transform="translate(-54.57 -187.57)"/></g><g class="cls-4"><path class="cls-5" d="M152.13,205.26,78.13,290a56.5,56.5,0,1,1,74-84.72Z" transform="translate(-54.57 -187.57)"/></g><path class="cls-6" d="M84.66,246.66l14.16,4.76v8l-22.89-9.32v-6.89l22.89-9.32v7.92Z" transform="translate(-54.57 -187.57)"/><path class="cls-6" d="M107.21,265.66H101l12.87-40.94h6.21Z" transform="translate(-54.57 -187.57)"/><path class="cls-6" d="M137.35,246.58l-14.09-4.79v-7.93L146,243.19v6.88l-22.76,9.33v-7.93Z" transform="translate(-54.57 -187.57)"/><path class="cls-7" d="M186.57,229.91h18.07v1.46a17.52,17.52,0,0,1-2.15,8.56,16.36,16.36,0,0,1-6,6.21,16.56,16.56,0,0,1-8.71,2.31,17.49,17.49,0,0,1-8.89-2.33,17.23,17.23,0,0,1-6.4-6.37,18,18,0,0,1,0-17.69,17.51,17.51,0,0,1,15.29-8.75,16.54,16.54,0,0,1,9.79,3,17.79,17.79,0,0,1,6.32,8h-4.15a13,13,0,0,0-4.85-5.36,13.24,13.24,0,0,0-7.11-2,13,13,0,0,0-6.81,1.86A14.06,14.06,0,0,0,181,243a13,13,0,0,0,6.81,1.86,13.33,13.33,0,0,0,6.11-1.4,11.72,11.72,0,0,0,4.5-3.94,12.68,12.68,0,0,0,2.08-5.89H186.57Z" transform="translate(-54.57 -187.57)"/><path class="cls-7" d="M213.9,248h-3.64V224.06h3.64Zm.56-28.5h-4.25V215h4.25Z" transform="translate(-54.57 -187.57)"/><path class="cls-7" d="M232,248.45a12.59,12.59,0,0,1-6.29-1.62,12.48,12.48,0,0,1,0-21.63,12.84,12.84,0,0,1,12.56,0,12.5,12.5,0,0,1,0,21.63A12.49,12.49,0,0,1,232,248.45Zm0-3.41a8.32,8.32,0,0,0,4.35-1.19,8.72,8.72,0,0,0,3.15-3.23,9.47,9.47,0,0,0,0-9.19,8.78,8.78,0,0,0-3.15-3.25,8.64,8.64,0,0,0-8.72,0,8.83,8.83,0,0,0-3.17,3.25,9.61,9.61,0,0,0,0,9.19,8.77,8.77,0,0,0,3.17,3.23A8.31,8.31,0,0,0,232,245Z" transform="translate(-54.57 -187.57)"/><path class="cls-7" d="M263.3,223.81v3.41h-2.44a7.07,7.07,0,0,0-3.56.92,6.8,6.8,0,0,0-2.56,2.52,7,7,0,0,0-1,3.65V248h-3.64V224.06h3.64v3.41a10,10,0,0,1,3.4-2.72,9.38,9.38,0,0,1,4.18-.94Z" transform="translate(-54.57 -187.57)"/><path class="cls-7" d="M286.3,224.06H290v22.46a12.1,12.1,0,0,1-1.52,6,10.41,10.41,0,0,1-4.21,4.16,12.61,12.61,0,0,1-6.22,1.5,12.17,12.17,0,0,1-7.3-2.22,11.09,11.09,0,0,1-4.18-6.07h3.66a7.27,7.27,0,0,0,2.94,3.54,8.84,8.84,0,0,0,4.88,1.34,8.07,8.07,0,0,0,6-2.29,8.2,8.2,0,0,0,2.25-6v-3.13a11.5,11.5,0,0,1-3.73,3,10.42,10.42,0,0,1-4.81,1.11,12.3,12.3,0,0,1-6.07-1.53,11.26,11.26,0,0,1-4.33-4.25,12.79,12.79,0,0,1,0-12.39,11.33,11.33,0,0,1,4.33-4.25,12.4,12.4,0,0,1,6.07-1.52,10.54,10.54,0,0,1,4.81,1.1,11.77,11.77,0,0,1,3.73,3Zm-8.25,20a8.48,8.48,0,0,0,4.33-1.13,8.08,8.08,0,0,0,3.06-3.08,9.06,9.06,0,0,0,0-8.69,8,8,0,0,0-3.06-3.06,8.47,8.47,0,0,0-4.33-1.12,8.61,8.61,0,0,0-4.36,1.12,8,8,0,0,0-3,3.06,9.13,9.13,0,0,0,0,8.69,8.1,8.1,0,0,0,3,3.08A8.61,8.61,0,0,0,278.05,244.08Z" transform="translate(-54.57 -187.57)"/><path class="cls-7" d="M300.93,248h-3.64V224.06h3.64Zm.57-28.5h-4.25V215h4.25Z" transform="translate(-54.57 -187.57)"/><path class="cls-7" d="M327.6,224.06h3.65V248H327.6v-3.66a10.86,10.86,0,0,1-3.81,3,11.42,11.42,0,0,1-5,1.1,12.19,12.19,0,0,1-10.6-6.12,12.91,12.91,0,0,1,0-12.63,12.14,12.14,0,0,1,4.5-4.5,12,12,0,0,1,6.1-1.64,11.16,11.16,0,0,1,5,1.12,11,11,0,0,1,3.81,3Zm-8.5,21a8.47,8.47,0,0,0,4.4-1.19,8.7,8.7,0,0,0,3.17-3.23,9.68,9.68,0,0,0,0-9.19,8.75,8.75,0,0,0-3.17-3.25,8.77,8.77,0,0,0-8.79,0,8.88,8.88,0,0,0-3.19,3.25,9.61,9.61,0,0,0,0,9.19,8.82,8.82,0,0,0,3.19,3.23A8.46,8.46,0,0,0,319.1,245Z" transform="translate(-54.57 -187.57)"/><path class="cls-7" d="M370.31,248H353.23V213.81h3.9v30.5h13.18Z" transform="translate(-54.57 -187.57)"/><path class="cls-7" d="M395,224.06h3.65V248H395v-3.66a10.86,10.86,0,0,1-3.81,3,11.42,11.42,0,0,1-5,1.1,12.19,12.19,0,0,1-10.6-6.12,12.91,12.91,0,0,1,0-12.63,12.14,12.14,0,0,1,4.5-4.5,12,12,0,0,1,6.1-1.64,11.16,11.16,0,0,1,5,1.12,11,11,0,0,1,3.81,3Zm-8.5,21a8.47,8.47,0,0,0,4.4-1.19,8.7,8.7,0,0,0,3.17-3.23,9.68,9.68,0,0,0,0-9.19,8.75,8.75,0,0,0-3.17-3.25,8.77,8.77,0,0,0-8.79,0,8.88,8.88,0,0,0-3.19,3.25,9.61,9.61,0,0,0,0,9.19,8.82,8.82,0,0,0,3.19,3.23A8.46,8.46,0,0,0,386.51,245Z" transform="translate(-54.57 -187.57)"/><path class="cls-7" d="M419.16,223.81v3.41h-2.44a7.07,7.07,0,0,0-3.56.92,6.73,6.73,0,0,0-2.56,2.52,7,7,0,0,0-1,3.65V248H406V224.06h3.65v3.41a9.78,9.78,0,0,1,3.4-2.72,9.38,9.38,0,0,1,4.18-.94Z" transform="translate(-54.57 -187.57)"/><path class="cls-7" d="M427,248h-3.65V224.06H427Zm.56-28.5h-4.25V215h4.25Z" transform="translate(-54.57 -187.57)"/><path class="cls-7" d="M185.25,262.74v1.54h-5.11v4.58H185v1.52h-4.9V277h-1.62V262.74Z" transform="translate(-54.57 -187.57)"/><path class="cls-7" d="M192.13,277.22a4.55,4.55,0,0,1-2.29-.57,3.81,3.81,0,0,1-1.52-1.56,4.68,4.68,0,0,1-.54-2.25V267h1.54v5.81a3,3,0,0,0,.77,2.13,2.67,2.67,0,0,0,2,.81,2.64,2.64,0,0,0,2-.81,3,3,0,0,0,.79-2.13V267h1.53v5.81a4.68,4.68,0,0,1-.55,2.25,3.79,3.79,0,0,1-1.54,1.56A4.38,4.38,0,0,1,192.13,277.22Z" transform="translate(-54.57 -187.57)"/><path class="cls-7" d="M201.16,277h-1.54V262.34h1.54Z" transform="translate(-54.57 -187.57)"/><path class="cls-7" d="M206.05,277h-1.54V262.34h1.54Z" transform="translate(-54.57 -187.57)"/><path class="cls-7" d="M219.44,277.22a5.7,5.7,0,0,1-2.57-.55,4,4,0,0,1-1.64-1.54,4.52,4.52,0,0,1-.63-2.21h1.63a2.69,2.69,0,0,0,.87,2,3.91,3.91,0,0,0,4.44.15,2,2,0,0,0,.79-1.71,2.12,2.12,0,0,0-.43-1.37,3.09,3.09,0,0,0-1.11-.84,14.15,14.15,0,0,0-1.75-.66,18.77,18.77,0,0,1-2.14-.86,3.64,3.64,0,0,1-1.36-1.21,3.85,3.85,0,0,1,0-4,4,4,0,0,1,1.56-1.35,5.21,5.21,0,0,1,2.3-.5,4.6,4.6,0,0,1,2.16.52,4.17,4.17,0,0,1,1.59,1.44,3.77,3.77,0,0,1,.62,2h-1.62a2.35,2.35,0,0,0-.84-1.75,2.91,2.91,0,0,0-2-.69,3.06,3.06,0,0,0-1.91.58,2.23,2.23,0,0,0-.34,3,2.92,2.92,0,0,0,1,.79c.42.19,1,.41,1.73.67a13.85,13.85,0,0,1,2.17.85,3.91,3.91,0,0,1,1.44,1.25,3.74,3.74,0,0,1,.58,2.17,3.49,3.49,0,0,1-.6,2,4.31,4.31,0,0,1-1.65,1.38A5.38,5.38,0,0,1,219.44,277.22Z" transform="translate(-54.57 -187.57)"/><path class="cls-7" d="M231.45,268.4h-2.54V274a1.65,1.65,0,0,0,.43,1.2,1.59,1.59,0,0,0,1.19.44h.92V277h-1a3.07,3.07,0,0,1-2.21-.81,2.91,2.91,0,0,1-.83-2.15V268.4h-1.65V267h1.65v-2.65h1.52V267h2.54Z" transform="translate(-54.57 -187.57)"/><path class="cls-7" d="M242,267h1.52v10H242v-1.52a4.87,4.87,0,0,1-1.6,1.27,4.81,4.81,0,0,1-2.06.46,5.05,5.05,0,0,1-2.57-.69,5.23,5.23,0,0,1,0-9,5.05,5.05,0,0,1,2.57-.69,4.55,4.55,0,0,1,2.06.48,4.69,4.69,0,0,1,1.6,1.25Zm-3.56,8.75a3.49,3.49,0,0,0,1.83-.5,3.57,3.57,0,0,0,1.34-1.36,3.7,3.7,0,0,0,.5-1.91,3.77,3.77,0,0,0-.5-1.9,3.6,3.6,0,0,0-1.34-1.37,3.4,3.4,0,0,0-1.83-.5,3.45,3.45,0,0,0-1.83.5,3.75,3.75,0,0,0-1.34,1.37,3.86,3.86,0,0,0-.48,1.9,3.79,3.79,0,0,0,.48,1.91,3.72,3.72,0,0,0,1.34,1.36A3.54,3.54,0,0,0,238.41,275.78Z" transform="translate(-54.57 -187.57)"/><path class="cls-7" d="M251.06,277.22a4.91,4.91,0,0,1-2.56-.69,5.21,5.21,0,0,1,0-9,4.91,4.91,0,0,1,2.56-.69,5.1,5.1,0,0,1,2.94.9,4.71,4.71,0,0,1,1.83,2.45h-1.62a3.26,3.26,0,0,0-1.29-1.41,3.51,3.51,0,0,0-1.86-.52,3.34,3.34,0,0,0-1.79.5,3.62,3.62,0,0,0-1.29,1.37,4,4,0,0,0-.46,1.9,3.88,3.88,0,0,0,.46,1.91,3.59,3.59,0,0,0,1.29,1.36,3.43,3.43,0,0,0,1.79.5,3.68,3.68,0,0,0,1.86-.5,3.28,3.28,0,0,0,1.29-1.44h1.62a4.67,4.67,0,0,1-1.83,2.48A5.1,5.1,0,0,1,251.06,277.22Z" transform="translate(-54.57 -187.57)"/><path class="cls-7" d="M261.35,271.86l5.06,5.15h-2.06l-4.63-4.77V277h-1.54V262.34h1.54v9.23l4.4-4.54h1.95Z" transform="translate(-54.57 -187.57)"/><path class="cls-7" d="M286.61,273.9l3.59-11.16h1.68L287.09,277h-1l-3.67-11.13L278.72,277h-1l-4.79-14.27h1.75l3.56,11.1,3.67-11.1h1Z" transform="translate(-54.57 -187.57)"/><path class="cls-7" d="M298.33,266.82a5,5,0,0,1,2.48.63,4.5,4.5,0,0,1,1.79,1.75,5.1,5.1,0,0,1,.65,2.58,4.72,4.72,0,0,1-.05.75h-8.29a3.77,3.77,0,0,0,1,2.37,3.29,3.29,0,0,0,2.38.88,3.19,3.19,0,0,0,3-1.73H303a5,5,0,0,1-1.84,2.35,5.23,5.23,0,0,1-5.41.13,5,5,0,0,1-1.82-1.86,5.45,5.45,0,0,1-.64-2.66,5.36,5.36,0,0,1,.64-2.63,5,5,0,0,1,1.82-1.87A4.84,4.84,0,0,1,298.33,266.82Zm0,1.42a3.24,3.24,0,0,0-2.25.79,3.55,3.55,0,0,0-1.11,2.1h6.67a3.1,3.1,0,0,0-1.08-2.08A3.28,3.28,0,0,0,298.33,268.24Z" transform="translate(-54.57 -187.57)"/><path class="cls-7" d="M310.9,266.82a5,5,0,0,1,2.54.69,5,5,0,0,1,1.88,1.87,5.38,5.38,0,0,1,0,5.27,5.14,5.14,0,0,1-4.42,2.57,4.8,4.8,0,0,1-2.08-.46,4.51,4.51,0,0,1-1.58-1.27V277h-1.55V262.34h1.55v6.21a4.35,4.35,0,0,1,1.58-1.25A4.55,4.55,0,0,1,310.9,266.82Zm-.1,9a3.42,3.42,0,0,0,1.81-.5,3.57,3.57,0,0,0,1.31-1.36,3.61,3.61,0,0,0,.5-1.91,3.67,3.67,0,0,0-.5-1.9,3.6,3.6,0,0,0-1.31-1.37,3.33,3.33,0,0,0-1.81-.5,3.56,3.56,0,0,0-1.86.5,3.72,3.72,0,0,0-1.33,1.37,3.86,3.86,0,0,0-.48,1.9,3.79,3.79,0,0,0,.48,1.91,3.69,3.69,0,0,0,1.33,1.36A3.65,3.65,0,0,0,310.8,275.78Z" transform="translate(-54.57 -187.57)"/><path class="cls-7" d="M324.67,277V262.74h3.77a9.22,9.22,0,0,1,4.15.89,6.48,6.48,0,0,1,2.73,2.5,7.18,7.18,0,0,1,1,3.75,7.08,7.08,0,0,1-1,3.73,6.47,6.47,0,0,1-2.73,2.52,9.22,9.22,0,0,1-4.15.88Zm3.77-1.52a7.35,7.35,0,0,0,3.29-.69,5,5,0,0,0,2.13-2,6.12,6.12,0,0,0,0-5.87,4.81,4.81,0,0,0-2.13-2,7.35,7.35,0,0,0-3.29-.69h-2.15v11.21Z" transform="translate(-54.57 -187.57)"/><path class="cls-7" d="M343.36,266.82a5,5,0,0,1,2.48.63,4.5,4.5,0,0,1,1.79,1.75,5.09,5.09,0,0,1,.64,2.58,4.94,4.94,0,0,1,0,.75h-8.29a3.72,3.72,0,0,0,1,2.37,3.27,3.27,0,0,0,2.38.88,3.2,3.2,0,0,0,3-1.73h1.65a5,5,0,0,1-1.84,2.35,5.23,5.23,0,0,1-5.41.13,5,5,0,0,1-1.82-1.86,5.45,5.45,0,0,1-.64-2.66,5.36,5.36,0,0,1,.64-2.63,5,5,0,0,1,1.82-1.87A4.84,4.84,0,0,1,343.36,266.82Zm0,1.42a3.24,3.24,0,0,0-2.25.79,3.45,3.45,0,0,0-1.11,2.1h6.67a3.1,3.1,0,0,0-1.08-2.08A3.28,3.28,0,0,0,343.36,268.24Z" transform="translate(-54.57 -187.57)"/><path class="cls-7" d="M354.31,274.65l3.37-7.62h1.61l-4.48,10h-1l-4.48-10H351Z" transform="translate(-54.57 -187.57)"/><path class="cls-7" d="M365.42,266.82a5,5,0,0,1,2.48.63,4.59,4.59,0,0,1,1.8,1.75,5.19,5.19,0,0,1,.64,2.58,4.94,4.94,0,0,1,0,.75H362a3.67,3.67,0,0,0,1,2.37,3.26,3.26,0,0,0,2.37.88,3.2,3.2,0,0,0,3.05-1.73h1.64a5,5,0,0,1-1.83,2.35,5.25,5.25,0,0,1-5.42.13,5,5,0,0,1-1.81-1.86,5.46,5.46,0,0,1-.65-2.66,5.37,5.37,0,0,1,.65-2.63,5,5,0,0,1,1.81-1.87A4.86,4.86,0,0,1,365.42,266.82Zm0,1.42a3.27,3.27,0,0,0-2.25.79,3.49,3.49,0,0,0-1.1,2.1h6.67a3.07,3.07,0,0,0-1.09-2.08A3.24,3.24,0,0,0,365.42,268.24Z" transform="translate(-54.57 -187.57)"/><path class="cls-7" d="M374.33,277h-1.54V262.34h1.54Z" transform="translate(-54.57 -187.57)"/><path class="cls-7" d="M382.07,277.22a5.08,5.08,0,0,1-2.6-.69,5.19,5.19,0,0,1-1.9-1.88,5.31,5.31,0,0,1,0-5.27,5.24,5.24,0,0,1,1.9-1.87,5.08,5.08,0,0,1,2.6-.69,5.14,5.14,0,0,1,2.63.69,5.32,5.32,0,0,1,1.9,1.87,5.31,5.31,0,0,1,0,5.27,5.27,5.27,0,0,1-1.9,1.88A5.14,5.14,0,0,1,382.07,277.22Zm0-1.44a3.56,3.56,0,0,0,3.15-1.86,3.7,3.7,0,0,0,.5-1.91,3.77,3.77,0,0,0-.5-1.9,3.6,3.6,0,0,0-1.31-1.37,3.46,3.46,0,0,0-1.84-.5,3.38,3.38,0,0,0-1.81.5,3.72,3.72,0,0,0-1.33,1.37,3.86,3.86,0,0,0-.48,1.9,3.79,3.79,0,0,0,.48,1.91,3.69,3.69,0,0,0,1.33,1.36A3.47,3.47,0,0,0,382.07,275.78Z" transform="translate(-54.57 -187.57)"/><path class="cls-7" d="M395,266.82a5.13,5.13,0,0,1,4.41,2.56,5.38,5.38,0,0,1,0,5.27,5.11,5.11,0,0,1-4.41,2.57,4.88,4.88,0,0,1-2.09-.46,4.6,4.6,0,0,1-1.58-1.27v5.6h-1.54V267h1.54v1.52a4.44,4.44,0,0,1,1.58-1.25A4.62,4.62,0,0,1,395,266.82Zm-.11,9a3.46,3.46,0,0,0,1.82-.5,3.57,3.57,0,0,0,1.31-1.36,3.7,3.7,0,0,0,.5-1.91,3.77,3.77,0,0,0-.5-1.9,3.6,3.6,0,0,0-1.31-1.37,3.37,3.37,0,0,0-1.82-.5,3.55,3.55,0,0,0-1.85.5,3.65,3.65,0,0,0-1.33,1.37,3.75,3.75,0,0,0-.48,1.9,3.69,3.69,0,0,0,.48,1.91,3.63,3.63,0,0,0,3.18,1.86Z" transform="translate(-54.57 -187.57)"/><path class="cls-7" d="M406.81,266.82a5,5,0,0,1,2.48.63,4.56,4.56,0,0,1,1.79,1.75,5.19,5.19,0,0,1,.64,2.58,4.94,4.94,0,0,1,0,.75h-8.29a3.67,3.67,0,0,0,1,2.37,3.27,3.27,0,0,0,2.38.88,3.2,3.2,0,0,0,3-1.73h1.64a5,5,0,0,1-1.83,2.35,5.25,5.25,0,0,1-5.42.13,5,5,0,0,1-1.81-1.86,5.45,5.45,0,0,1-.64-2.66,5.36,5.36,0,0,1,.64-2.63,5,5,0,0,1,1.81-1.87A4.87,4.87,0,0,1,406.81,266.82Zm0,1.42a3.24,3.24,0,0,0-2.25.79,3.45,3.45,0,0,0-1.11,2.1h6.67a3.1,3.1,0,0,0-1.08-2.08A3.28,3.28,0,0,0,406.81,268.24Z" transform="translate(-54.57 -187.57)"/><path class="cls-7" d="M419.57,266.92v1.42h-1a2.9,2.9,0,0,0-1.5.4,2.81,2.81,0,0,0-1.07,1,3,3,0,0,0-.39,1.52V277h-1.54V267h1.54v1.42a3.93,3.93,0,0,1,1.39-1.13,4,4,0,0,1,1.75-.4Z" transform="translate(-54.57 -187.57)"/></svg>