<?xml version="1.0" standalone="no"?>
<svg xmlns:xlink="http://www.w3.org/1999/xlink" id="wave" style="transform:rotate(0deg); transition: 0.3s" viewBox="0 0 1440 160" version="1.1" xmlns="http://www.w3.org/2000/svg"><defs><linearGradient id="sw-gradient-0" x1="0" x2="0" y1="1" y2="0"><stop stop-color="rgba(20, 42, 80, 1)" offset="0%"/><stop stop-color="rgba(20, 42, 80, 1)" offset="100%"/></linearGradient></defs><path style="transform:translate(0, 0px); opacity:1" fill="url(#sw-gradient-0)" d="M0,96L80,85.3C160,75,320,53,480,56C640,59,800,85,960,85.3C1120,85,1280,59,1440,42.7C1600,27,1760,21,1920,32C2080,43,2240,69,2400,74.7C2560,80,2720,64,2880,48C3040,32,3200,16,3360,10.7C3520,5,3680,11,3840,34.7C4000,59,4160,101,4320,101.3C4480,101,4640,59,4800,53.3C4960,48,5120,80,5280,96C5440,112,5600,112,5760,93.3C5920,75,6080,37,6240,40C6400,43,6560,85,6720,98.7C6880,112,7040,96,7200,85.3C7360,75,7520,69,7680,74.7C7840,80,8000,96,8160,93.3C8320,91,8480,69,8640,66.7C8800,64,8960,80,9120,88C9280,96,9440,96,9600,82.7C9760,69,9920,43,10080,29.3C10240,16,10400,16,10560,24C10720,32,10880,48,11040,50.7C11200,53,11360,43,11440,37.3L11520,32L11520,160L11440,160C11360,160,11200,160,11040,160C10880,160,10720,160,10560,160C10400,160,10240,160,10080,160C9920,160,9760,160,9600,160C9440,160,9280,160,9120,160C8960,160,8800,160,8640,160C8480,160,8320,160,8160,160C8000,160,7840,160,7680,160C7520,160,7360,160,7200,160C7040,160,6880,160,6720,160C6560,160,6400,160,6240,160C6080,160,5920,160,5760,160C5600,160,5440,160,5280,160C5120,160,4960,160,4800,160C4640,160,4480,160,4320,160C4160,160,4000,160,3840,160C3680,160,3520,160,3360,160C3200,160,3040,160,2880,160C2720,160,2560,160,2400,160C2240,160,2080,160,1920,160C1760,160,1600,160,1440,160C1280,160,1120,160,960,160C800,160,640,160,480,160C320,160,160,160,80,160L0,160Z"/></svg>